PathFileType	4	(X/Y/Z)	Patient4_TMGait_0pt6_01_right_39.trc.trc
DataRate	CameraRate	NumFrames	NumMarkers	Units	OrigDataRate	OrigDataStartFrame	OrigNumFrames
83.333333333333	83.333333333333	5	33	mm	83.333333333333	36	       141
Frame#	Time	Sacral			L.Shoulder			Chest			R.Shoulder			Neck			R.ASIS			L.ASIS			R.Thigh.Superior			R.Thigh.Lateral			R.Thigh.Inferior			R.Patella			L.Thigh.Superior			L.Thigh.Lateral			L.Thigh.Inferior			L.Patella			L.Shank.Superior			L.Shank.Lateral			L.Shank.Inferior			R.Shank.Superior			R.Shank.Lateral			R.Shank.Inferior			R.Heel			R.Midfoot.Superior			R.Midfoot.Lateral			R.Toe			L.Heel			L.Midfoot.Lateral			L.Midfoot.Superior			L.Toe			L.Elbow			L.Wrist			R.Elbow			R.Wrist			
		X1	Y1	Z1	X2	Y2	Z2	X3	Y3	Z3	X4	Y4	Z4	X5	Y5	Z5	X6	Y6	Z6	X7	Y7	Z7	X8	Y8	Z8	X9	Y9	Z9	X10	Y10	Z10	X11	Y11	Z11	X12	Y12	Z12	X13	Y13	Z13	X14	Y14	Z14	X15	Y15	Z15	X16	Y16	Z16	X17	Y17	Z17	X18	Y18	Z18	X19	Y19	Z19	X20	Y20	Z20	X21	Y21	Z21	X22	Y22	Z22	X23	Y23	Z23	X24	Y24	Z24	X25	Y25	Z25	X26	Y26	Z26	X27	Y27	Z27	X28	Y28	Z28	X29	Y29	Z29	X30	Y30	Z30	X31	Y31	Z31	X32	Y32	Z32	X33	Y33	Z33	

36	47.320000000000	771.680406623152	997.636754204461	473.165300438709	928.278842880163	1439.251301594288	303.775853050212	1033.491591796222	1371.344804436954	462.637901418317	943.767175114406	1431.754768566173	637.609307311355	901.511535863640	1490.866709911966	458.566342416538	1001.613759691492	937.603769828715	585.753990117244	983.428644180775	964.615414462546	312.918895739851	1063.772029633617	748.187606186567	549.017558610198	996.103963682564	629.959544278597	607.758184860658	1079.355087130278	587.228198416179	526.825102615765	1090.618749162592	495.721413956892	532.480082304844	1009.728701495175	734.702095816897	330.517666494349	909.278679524173	626.019419594978	271.915970766060	992.585915784297	536.367832683432	324.215674013774	980.493977242109	452.584361768611	322.587071867440	913.453939382636	396.126453402682	322.905973576142	772.259159795033	345.799502096280	285.107871809503	768.066871185710	218.719252811401	345.848234663996	1061.080494213999	405.603337409754	537.657469372762	990.242354131458	299.879673934076	595.977082560498	1034.098573884487	206.548589733040	532.492082019366	902.850008720646	41.530678990503	497.632176837642	1072.026800355329	97.058313048163	538.687487957989	983.289320085438	37.205241732422	575.545546445050	1191.525535939418	44.713352050884	572.198406537576	584.411238302031	137.933683330660	398.140452375264	641.430978396063	96.143356203621	316.612643361512	744.477230962386	117.819485062464	330.829346622819	832.940672108593	32.200140484093	303.929647834050	962.535248509114	1095.370659319015	161.304942956333	1186.862279704775	963.245677434340	160.567446280191	883.327993630015	1082.743714145293	740.733882543426	936.460896665220	827.156099653761	746.598861559376	
37	47.332000000000	772.100288264897	998.572459035993	476.670568148594	927.369639990280	1440.132684176459	305.655811144506	1033.924085316257	1372.289810329808	463.648094123503	945.714647859296	1432.699885457023	639.309138106515	901.945439521061	1491.717477688671	460.775852513051	1002.623302833646	938.533833462292	587.388780027538	983.245250792367	965.809563865784	314.802788386119	1062.156329739932	747.331586118965	550.831206952152	993.044915374787	630.042112657129	609.455090409335	1075.282967711257	586.408518762681	527.993220666046	1085.304493424311	495.001582559982	533.250685948239	1014.813283668637	737.486428696155	332.106052469534	918.871022141755	626.382736379129	272.340452299449	1005.260605859521	538.536327150545	324.262945321825	994.394276114276	453.495188029052	321.739690941682	925.259372308390	397.244365136258	322.314071877427	782.134055344817	352.175151483277	284.791750340222	773.573652249940	225.214961128189	345.050874299296	1055.457426788694	405.194827766163	538.512292404393	984.440966273252	299.639779854889	596.641169634755	1027.733159768893	206.286319735177	532.824607345227	895.847752765657	41.533694874785	497.799723260981	1065.033819102578	97.062548821515	538.849064241105	976.273391460205	37.158276718409	575.674920492198	1184.587358384291	44.313461188542	572.386782302722	586.963092107184	154.517023828231	397.332610899751	641.348172709223	108.664811543093	316.042664974406	745.690022994845	123.635981529906	330.152306760550	827.591660101217	31.239254491048	303.921195271727	959.245981366950	1094.774830352700	165.910595431109	1175.788133438109	949.410585447925	164.057825150536	893.613021883118	1082.184570065979	744.093243357104	959.346973863837	829.415240758205	747.904327703170	
38	47.344000000000	772.259212559534	999.457498502509	480.115459645786	926.279913514040	1440.838598151461	307.401766073101	1034.294144689258	1373.053864392309	464.445166852302	947.752344320542	1433.466832623571	640.882603160610	902.391346702774	1492.426346087847	462.914954661433	1003.375160033279	939.317577382582	588.857199705915	982.692158099501	966.755624071882	316.560229403889	1060.229875608800	746.419500250266	552.711351106232	989.685742445159	630.079733553997	611.216412359089	1070.939488585025	585.595020863036	529.273248867962	1079.708532787556	494.301903747233	534.180578532937	1019.751416011457	740.462781398573	333.781696852078	928.539235117657	627.126744965232	272.704896398299	1017.792569058872	541.255540615979	324.537722164714	1008.334184729407	455.057434318958	321.255115829826	937.408857568979	398.847067028734	321.893242006565	792.675953533081	358.702330411443	284.472845821549	779.972831981714	232.009111599291	344.383790131682	1049.618017018609	404.794061329711	539.470524760413	978.421161502933	299.371030817809	597.354687141346	1021.235547133489	206.028045118255	533.223469346833	888.780457242726	41.554923797913	497.945757099786	1058.000854117376	97.009158606459	539.051648505997	969.185139562836	37.097806179629	575.788341878141	1177.579092738642	43.837795664323	572.574142407290	590.933649896962	170.970684103843	396.540610737213	642.720127122527	121.472766390687	315.460362595732	748.038493261298	130.005401333535	329.599891711627	823.498515179322	30.611939677542	303.855537177883	955.944731129831	1094.002422240166	170.458181334237	1163.630169540277	935.570276050715	167.604613685018	903.979433618833	1081.792254906063	747.490232381303	982.781037470886	832.660082365892	748.935741891488	
39	47.356000000000	772.164655371837	1000.309567989491	483.446201051843	925.066333209966	1441.374494781204	308.995056205224	1034.613126476020	1373.645771478609	465.041053734241	949.856025828749	1434.088946011749	642.313627411025	902.855774311735	1493.018855087186	464.936734897336	1003.847390888304	939.968424172819	590.191628200218	981.747267150770	967.435397877501	318.207412148975	1058.056553882170	745.515898505806	554.643165898767	986.105446860044	630.108445379799	613.031538329671	1066.413985645156	584.820448012428	530.676425992750	1073.921417740110	493.653948390805	535.287057296978	1024.432333298430	743.647809626169	335.566341057971	938.087946036027	628.319459905422	273.035520278441	1029.958654724184	544.556098218392	325.025420687724	1022.103646459624	457.307636758818	321.069769616050	949.712937205785	400.961665810861	321.614909724335	803.685204745887	365.237854982700	284.168296565232	787.238892388827	238.882110162783	343.831674773422	1043.648295954246	404.422564203275	540.535685454280	972.249378190148	299.108394848125	598.132236826255	1014.650873252997	205.795161701272	533.697535799382	881.653157918418	41.612871731187	498.082596348685	1050.943586866214	96.913577511157	539.299747981754	962.038019208158	37.035327380596	575.894111131481	1170.511723114150	43.304855457211	572.759056350804	596.302407924910	186.591755188211	395.774533623669	645.687088590956	133.984217552037	314.868469325095	751.675573180241	136.682284053892	329.137625415084	821.150725992390	30.481529083808	303.706222083581	952.567605026869	1093.044604652826	174.926332687929	1150.354236181068	921.917133234956	171.185430964675	914.413131424303	1081.583197012354	750.849384619206	1006.613978111252	836.990231101324	749.651863373249	
40	47.368000000000	771.831963882665	1001.156032473250	486.618955394426	923.791739333879	1441.763946610537	310.423619360618	1034.891487457257	1374.093647689035	465.457357170640	951.995436555299	1434.624329019666	643.589035448514	903.338029653840	1493.535192499099	466.794186599001	1004.031279125038	940.516317049070	591.430843929174	980.413826551731	967.864778846482	319.772623941631	1055.693502758921	744.672395344450	556.617855978681	982.348143793427	630.161428932357	614.878837588120	1061.764640011482	584.109136922796	532.202205682517	1068.003631650529	493.085296736711	536.560865935126	1028.762411143735	747.058734389877	337.474068867960	947.332165985878	630.006976829045	273.354976575732	1041.573422935064	548.446177938253	325.676776737453	1035.514996709396	460.261267132131	321.087444718573	962.005902414862	403.593415958700	321.429861006163	814.977529823870	371.610572185383	283.884645344746	795.369033472574	245.580369530318	343.363204571909	1037.605073192132	404.103913615254	541.699798535035	965.967356179380	298.886218170746	598.974394177532	1008.013963914939	205.611444526604	534.250748240132	874.476979902804	41.723037580609	498.219866616491	1043.877192196012	96.797940843295	539.591776905460	954.850883139898	36.980499585077	575.997813956674	1163.400060460420	42.739700820201	572.941237680784	603.035088887809	200.660012698870	395.039738499716	650.375965748639	145.579076698208	314.263520295896	756.771448524922	143.359112921350	328.720712972890	821.067944785784	30.967826756604	303.441494241297	949.031845755853	1091.921821511991	179.298907002409	1135.942213076613	908.652615070371	174.779197099493	924.903546003904	1081.590370463283	754.086410540908	1030.692990946588	842.511432726197	750.009692424379	
